# xmcd
#
# Track frame offsets:
#	150
#	10080
#	21475
#	33705
#	42115
#	52915
#	65090
#	74972
#	87355
#	98667
#	111747
#	123132
#	133935
#	147297
#	157140
#	168920
#	178587
#	189340
#	202495
#	213242
#	223772
#	233005
#	247952
#	259277
#	271170
#	281982
#	292765
#
# Disc length: 4045 seconds
#
# Revision: 0
# Processed by: cddbd v1.5PL3 Copyright (c) Steve Scherf et al.
# Submitted via: audiograbber 1.80
#
DISCID=aa0fcb1b
DTITLE=skeets mcdonald - Don't Let The Stars Get In... cd5
DYEAR=1900
DGENRE=
TTITLE0=This Old Broken Heart 
TTITLE1=Call Me Mr. Brown 
TTITLE2=I've Gotta Show You 
TTITLE3=Dear John (I've Sent Your Saddle Home) 
TTITLE4=Chin Up - Chest Out 
TTITLE5=I'd Hate To Be Him 
TTITLE6=Think Of Me 
TTITLE7=Too Many Times (Away From You) 
TTITLE8=Mrs. Right's Divorcing Mr. Wrong 
TTITLE9=Down In Mexico 
TTITLE10=Teardrop Inn 
TTITLE11=Me And My Heart And My Shoes 
TTITLE12=Tell Me A Lie 
TTITLE13=Big Chief Buffalo Nickel (Desert Blues) 
TTITLE14=A Member Of The Blues 
TTITLE15=Molly Brown 
TTITLE16=There Sits An Angel 
TTITLE17=Day Sleeper 
TTITLE18=She's Never Gone That Route Before 
TTITLE19=She's Never Gone That Route Before 
TTITLE20=Too Much Of Me (Walked Away With You) 
TTITLE21=The Police Files 
TTITLE22=Your Uncertain Mind 
TTITLE23=It's Genuine 
TTITLE24=Old Indian's Never Die 
TTITLE25=You Can't Keep A Good Man Down 
TTITLE26=Talk Of The Town (Hush Hush) 
EXTD=
EXTT0=
EXTT1=
EXTT2=
EXTT3=
EXTT4=
EXTT5=
EXTT6=
EXTT7=
EXTT8=
EXTT9=
EXTT10=
EXTT11=
EXTT12=
EXTT13=
EXTT14=
EXTT15=
EXTT16=
EXTT17=
EXTT18=
EXTT19=
EXTT20=
EXTT21=
EXTT22=
EXTT23=
EXTT24=
EXTT25=
EXTT26=
PLAYORDER=
